<svg width="1254" height="1254" viewBox="0 0 1254 1254" fill="none" xmlns="http://www.w3.org/2000/svg">
<g clip-path="url(#clip0_2_2)">
<path d="M658 1255C438.667 1255 219.833 1255 1 1255C1 837 1 419 1 1C419 1 837 1 1255 1C1255 419 1255 837 1255 1255C1056.17 1255 857.333 1255 658 1255ZM171.036 610.82C171.31 612.571 171.585 614.322 171.864 616.677C171.818 617.07 171.772 617.463 171.374 618.614C171.347 619.613 171.297 620.612 171.297 621.611C171.276 719.075 171.259 816.54 171.241 914.005C171.241 918.598 171.241 923.191 171.241 927.785C171.582 927.881 171.923 927.977 172.264 928.073C172.884 927.068 173.505 926.063 174.713 924.738C175.773 923.243 176.863 921.769 177.889 920.251C218.722 859.81 259.469 799.312 300.395 738.935C359.641 651.532 419.056 564.244 478.324 476.857C546.475 376.372 614.55 275.835 682.642 175.309C688.474 166.698 694.183 158.004 700.351 148.744C697.92 148.744 696.433 148.744 694.946 148.744C630.297 148.74 565.647 148.819 500.998 148.697C468.822 148.636 444.539 163.229 426.91 189.119C409.861 214.158 393.82 239.883 377.317 265.294C315.549 360.404 253.762 455.503 192.011 550.625C183.686 563.449 177.101 577.027 174.549 592.302C173.558 598.231 172.307 604.115 171.036 610.82ZM920.602 834.098C920.314 834.183 920.082 834.348 918.985 834.633C827.99 834.653 736.992 834.989 646.002 834.342C632.785 834.248 624.745 838.154 616.841 848.585C571.766 908.074 525.948 966.999 480.396 1026.13C479.46 1027.34 478.68 1028.67 477.369 1030.64C484.312 1030.64 490.267 1030.64 496.223 1030.64C667.547 1030.67 838.87 1030.7 1010.19 1030.68C1014.67 1030.68 1019.24 1030.58 1023.61 1029.73C1065.8 1021.59 1094.73 986.726 1094.86 943.868C1095.2 833.541 1095.06 723.213 1095.02 612.886C1095.02 608.456 1094.58 603.922 1093.58 599.614C1089.21 580.853 1072.55 567.717 1053.33 567.714C989.502 567.706 925.672 567.756 861.842 567.76C843.227 567.761 828.05 575.369 816.781 589.748C781.945 634.201 747.498 678.961 712.914 723.612C711.45 725.502 710.118 727.493 707.978 730.479C779.899 730.479 850.432 730.479 921.331 730.479C921.331 740.413 921.358 749.728 921.326 759.044C921.24 784.036 921.129 809.028 920.602 834.098ZM587.939 407.444C575.381 425.692 562.771 443.904 550.333 462.232C548.833 464.442 547.381 467.278 547.378 469.826C547.243 582.826 547.274 695.825 547.285 808.824C547.285 810.404 547.285 811.983 547.285 815.062C549.975 811.715 551.723 809.58 553.428 807.412C605.459 741.291 657.438 675.13 709.526 609.054C756.561 549.389 803.664 489.777 850.834 430.218C886.521 385.158 922.268 340.146 958.162 295.251C987.084 259.076 1016.4 223.213 1045.26 186.993C1055.52 174.121 1052.36 161.722 1038.34 154.505C1029.59 149.999 1020 148.834 1010.45 148.807C945.282 148.628 880.114 148.503 814.951 148.942C805.092 149.008 794.918 151.034 785.474 154.009C762.991 161.091 746.643 176.153 733.437 195.52C685.297 266.116 636.751 336.436 587.939 407.444ZM495.039 744.5C495.039 737.376 495.039 730.253 495.039 722.908C493.847 722.77 493.059 722.6 492.271 722.6C458.607 722.582 424.943 722.529 391.279 722.712C389.412 722.722 386.916 724.259 385.795 725.849C377.925 737.009 370.352 748.378 362.659 759.664C306.364 842.251 250.06 924.834 193.764 1007.42C188.748 1014.78 183.765 1022.16 178.25 1030.29C180.974 1030.29 182.602 1030.29 184.23 1030.3C247.559 1030.33 310.888 1030.32 374.216 1030.5C378.326 1030.51 380.86 1029.29 383.36 1026.08C419.781 979.266 456.347 932.567 492.774 885.759C494.068 884.097 494.912 881.601 494.918 879.49C495.049 834.827 495.029 790.163 495.039 744.5Z" fill="#FEFDFD"/>
<path d="M921.029 834.02C921.129 809.028 921.24 784.036 921.326 759.044C921.358 749.728 921.331 740.413 921.331 730.479C850.432 730.479 779.899 730.479 707.978 730.479C710.118 727.493 711.45 725.502 712.914 723.612C747.498 678.961 781.945 634.202 816.781 589.748C828.05 575.369 843.227 567.761 861.842 567.76C925.672 567.756 989.502 567.706 1053.33 567.714C1072.55 567.717 1089.21 580.853 1093.58 599.614C1094.58 603.922 1095.02 608.456 1095.02 612.886C1095.06 723.213 1095.2 833.541 1094.86 943.868C1094.73 986.726 1065.8 1021.59 1023.61 1029.73C1019.24 1030.58 1014.67 1030.68 1010.19 1030.68C838.87 1030.7 667.547 1030.67 496.223 1030.64C490.267 1030.64 484.312 1030.64 477.369 1030.64C478.68 1028.67 479.46 1027.34 480.396 1026.13C525.948 966.999 571.766 908.074 616.841 848.585C624.745 838.154 632.785 834.249 646.001 834.342C736.992 834.989 827.99 834.653 919.695 834.695C920.613 834.511 920.821 834.265 921.029 834.02Z" fill="#FAB320"/>
<path d="M171.727 617.857C171.772 617.463 171.818 617.07 172.159 616.14C172.027 613.742 171.601 611.881 171.174 610.02C172.307 604.115 173.558 598.231 174.549 592.302C177.101 577.027 183.686 563.449 192.011 550.625C253.762 455.503 315.549 360.404 377.317 265.294C393.82 239.883 409.861 214.158 426.91 189.119C444.539 163.229 468.822 148.636 500.998 148.697C565.647 148.819 630.297 148.74 694.946 148.744C696.433 148.744 697.92 148.744 700.351 148.744C694.183 158.004 688.474 166.699 682.642 175.309C614.55 275.835 546.475 376.372 478.324 476.857C419.055 564.244 359.641 651.532 300.395 738.935C259.469 799.312 218.722 859.81 177.889 920.251C176.863 921.769 175.773 923.243 174.1 924.616C173.323 922.36 173.018 920.226 173.017 918.092C172.99 820.03 172.998 721.969 172.934 623.907C172.933 621.89 172.147 619.873 171.727 617.857Z" fill="#1643FD"/>
<path d="M588.149 407.152C636.751 336.436 685.297 266.116 733.437 195.52C746.643 176.153 762.991 161.091 785.474 154.009C794.918 151.034 805.092 149.008 814.951 148.942C880.114 148.503 945.282 148.629 1010.45 148.807C1020 148.834 1029.59 149.999 1038.34 154.505C1052.36 161.722 1055.52 174.121 1045.26 186.993C1016.4 223.213 987.084 259.076 958.162 295.251C922.268 340.146 886.521 385.158 850.834 430.218C803.664 489.777 756.561 549.389 709.526 609.054C657.438 675.13 605.459 741.291 553.428 807.412C551.723 809.58 549.975 811.715 547.285 815.062C547.285 811.983 547.285 810.404 547.285 808.824C547.274 695.825 547.243 582.826 547.378 469.826C547.381 467.278 548.833 464.442 550.333 462.232C562.771 443.904 575.381 425.692 588.149 407.152Z" fill="#F44D02"/>
<path d="M495.039 745C495.029 790.163 495.049 834.827 494.918 879.49C494.912 881.601 494.068 884.097 492.774 885.759C456.347 932.567 419.78 979.266 383.36 1026.08C380.86 1029.29 378.326 1030.51 374.216 1030.5C310.888 1030.32 247.559 1030.33 184.23 1030.3C182.602 1030.29 180.974 1030.29 178.25 1030.29C183.765 1022.16 188.748 1014.78 193.764 1007.42C250.06 924.834 306.364 842.251 362.659 759.664C370.352 748.378 377.925 737.009 385.795 725.849C386.916 724.259 389.412 722.722 391.279 722.712C424.943 722.529 458.607 722.582 492.271 722.6C493.059 722.6 493.847 722.77 495.039 722.908C495.039 730.253 495.039 737.376 495.039 745Z" fill="#1643FD"/>
<path d="M171.55 618.235C172.147 619.873 172.933 621.89 172.935 623.907C172.998 721.969 172.99 820.03 173.017 918.092C173.018 920.226 173.323 922.36 173.806 924.776C173.505 926.063 172.884 927.068 172.264 928.073C171.923 927.977 171.582 927.881 171.241 927.785C171.241 923.191 171.241 918.598 171.241 914.005C171.259 816.54 171.276 719.075 171.297 621.611C171.297 620.612 171.347 619.613 171.55 618.235Z" fill="#052EFD"/>
<path d="M171.105 610.42C171.601 611.881 172.027 613.742 172.157 615.839C171.585 614.322 171.31 612.571 171.105 610.42Z" fill="#052EFD"/>
<path d="M920.815 834.059C920.821 834.265 920.613 834.511 920.157 834.675C920.082 834.348 920.314 834.183 920.815 834.059Z" fill="#FDE3AB"/>
</g>
<defs>
<clipPath id="clip0_2_2">
<rect width="1254" height="1254" fill="white"/>
</clipPath>
</defs>
</svg>
